<svg width="200" height="116" viewBox="0 0 200 116" fill="none" xmlns="http://www.w3.org/2000/svg">
<path d="M35.9703 38V37.44L37.1463 36.992C37.9303 36.6933 38.4156 36.3387 38.6023 35.928C38.8263 35.48 38.9383 34.8827 38.9383 34.136V4.904C38.9383 4.15733 38.8263 3.56 38.6023 3.112C38.3783 2.664 37.8929 2.30933 37.1463 2.048L35.9703 1.6V1.04H50.2503V1.6L49.2423 2.048C48.5329 2.30933 48.0476 2.68266 47.7863 3.168C47.5249 3.616 47.3943 4.21333 47.3943 4.96V36.88H56.0183C57.3996 36.88 58.4076 36.544 59.0423 35.872C59.7143 35.2 60.3489 34.2293 60.9463 32.96L63.1303 28.256H63.6903L63.1863 38H35.9703ZM82.9748 39.008C80.6975 39.008 78.4948 38.5973 76.3668 37.776C74.2762 36.9547 72.3908 35.7413 70.7108 34.136C69.0682 32.4933 67.7615 30.4587 66.7908 28.032C65.8202 25.6053 65.3348 22.768 65.3348 19.52C65.3348 16.3093 65.8202 13.4907 66.7908 11.064C67.7615 8.63733 69.0868 6.62133 70.7668 5.016C72.4468 3.37333 74.3322 2.14133 76.4228 1.32C78.5508 0.461332 80.7348 0.0319982 82.9748 0.0319982C85.2522 0.0319982 87.4362 0.442665 89.5268 1.264C91.6548 2.048 93.5402 3.26133 95.1828 4.904C96.8628 6.50933 98.1882 8.544 99.1588 11.008C100.13 13.4347 100.615 16.272 100.615 19.52C100.615 22.6933 100.13 25.512 99.1588 27.976C98.1882 30.4027 96.8628 32.4373 95.1828 34.08C93.5402 35.6853 91.6548 36.9173 89.5268 37.776C87.4362 38.5973 85.2522 39.008 82.9748 39.008ZM82.9748 37.832C85.0282 37.832 86.6895 37.2907 87.9588 36.208C89.2282 35.088 90.1428 33.2027 90.7028 30.552C91.3002 27.864 91.5988 24.1867 91.5988 19.52C91.5988 14.816 91.3002 11.1387 90.7028 8.488C90.1428 5.8 89.2282 3.91466 87.9588 2.832C86.6895 1.712 85.0282 1.152 82.9748 1.152C80.9588 1.152 79.3162 1.712 78.0468 2.832C76.7775 3.91466 75.8442 5.8 75.2468 8.488C74.6868 11.1387 74.4068 14.816 74.4068 19.52C74.4068 24.1867 74.6868 27.864 75.2468 30.552C75.8442 33.2027 76.7775 35.088 78.0468 36.208C79.3162 37.2907 80.9588 37.832 82.9748 37.832ZM115.72 38.168L103.736 4.792C103.475 4.04533 103.12 3.46667 102.672 3.056C102.262 2.608 101.683 2.272 100.936 2.048L99.5924 1.6V1.04H115.72V1.6L113.984 2.104C113.126 2.328 112.64 2.72 112.528 3.28C112.454 3.84 112.547 4.53067 112.808 5.352L121.096 29.936L129.44 5.296C129.739 4.43733 129.87 3.728 129.832 3.168C129.832 2.608 129.403 2.216 128.544 1.992L127.088 1.6V1.04H134.928V1.6L133.416 2.048C132.707 2.23467 132.203 2.57067 131.904 3.056C131.606 3.504 131.326 4.10133 131.064 4.848L119.864 38.168H115.72ZM136.431 38V37.44L137.719 36.936C138.354 36.6747 138.783 36.3387 139.007 35.928C139.269 35.48 139.399 34.8827 139.399 34.136V4.904C139.399 4.15733 139.287 3.57867 139.063 3.168C138.877 2.72 138.429 2.36533 137.719 2.104L136.431 1.6V1.04H163.255L163.591 9.664H163.031L160.623 4.4C160.287 3.728 159.933 3.18667 159.559 2.776C159.186 2.36533 158.626 2.16 157.879 2.16H147.799V18.344H153.791C154.538 18.344 155.098 18.1573 155.471 17.784C155.882 17.3733 156.237 16.832 156.535 16.16L157.655 13.92H158.215V24H157.655L156.535 21.648C156.199 20.976 155.845 20.4533 155.471 20.08C155.098 19.6693 154.538 19.464 153.791 19.464H147.799V36.88H159.111C159.858 36.88 160.437 36.6933 160.847 36.32C161.258 35.9093 161.594 35.3493 161.855 34.64L164.151 29.376H164.711L164.375 38H136.431ZM20.289 116.008C16.6676 116.008 13.3823 115.28 10.433 113.824C7.52097 112.331 5.2063 110.128 3.48897 107.216C1.77164 104.304 0.912969 100.739 0.912969 96.52C0.912969 93.3093 1.43564 90.4907 2.48097 88.064C3.5263 85.6373 4.94497 83.6027 6.73697 81.96C8.5663 80.3173 10.657 79.0853 13.009 78.264C15.3983 77.4427 17.9183 77.032 20.569 77.032C22.697 77.032 24.657 77.2747 26.449 77.76C28.241 78.2453 29.921 78.9173 31.489 79.776L31.713 86.664H31.153L28.353 82.184C27.9796 81.4747 27.569 80.84 27.121 80.28C26.673 79.6827 26.113 79.2347 25.441 78.936C24.881 78.6747 24.321 78.488 23.761 78.376C23.2383 78.2267 22.5663 78.152 21.745 78.152C19.5796 78.152 17.601 78.7307 15.809 79.888C14.0543 81.0453 12.6356 82.968 11.553 85.656C10.5076 88.3067 9.98497 91.9467 9.98497 96.576C9.98497 101.168 10.489 104.808 11.497 107.496C12.505 110.147 13.8676 112.051 15.585 113.208C17.3396 114.328 19.2996 114.888 21.465 114.888C22.6596 114.888 23.6116 114.813 24.321 114.664C25.0303 114.477 25.7396 114.216 26.449 113.88C27.1583 113.581 27.6996 113.152 28.073 112.592C28.4463 111.995 28.7823 111.36 29.081 110.688L31.545 105.2H32.105L31.937 113.208C30.369 114.029 28.6143 114.701 26.673 115.224C24.7316 115.747 22.6036 116.008 20.289 116.008ZM33.655 115V114.44L35.055 113.936C35.8017 113.637 36.3804 113.283 36.791 112.872C37.2017 112.424 37.5377 111.808 37.799 111.024L49.335 77.928H54.095L65.463 111.248C65.7617 112.069 66.0977 112.704 66.471 113.152C66.8444 113.563 67.423 113.917 68.207 114.216L68.879 114.44V115H54.655V114.44L55.495 114.16C56.279 113.861 56.7457 113.451 56.895 112.928C57.0817 112.368 57.063 111.715 56.839 110.968L54.207 102.904H41.775L39.087 110.8C38.8257 111.621 38.7324 112.275 38.807 112.76C38.919 113.245 39.367 113.637 40.151 113.936L41.383 114.44V115H33.655ZM42.167 101.784H53.871L48.215 84.368L42.167 101.784ZM71.3702 115V114.44L73.2182 113.88C73.8902 113.693 74.3755 113.339 74.6742 112.816C74.9728 112.256 75.1222 111.603 75.1222 110.856V83.92C74.7115 83.024 74.3755 82.352 74.1142 81.904C73.8902 81.456 73.6288 81.0827 73.3302 80.784C73.0315 80.448 72.6208 80.0373 72.0982 79.552L71.1462 78.6V78.04H81.0582L99.6502 103.408V82.296C99.6502 81.5493 99.5195 80.8773 99.2582 80.28C99.0342 79.6827 98.5488 79.2907 97.8022 79.104L95.9542 78.6V78.04H103.962V78.6L102.45 79.104C101.778 79.328 101.367 79.72 101.218 80.28C101.069 80.84 100.994 81.4933 100.994 82.24V115.168H97.8582L76.4662 85.768V110.856C76.4662 111.603 76.5782 112.237 76.8022 112.76C77.0262 113.283 77.4928 113.656 78.2022 113.88L79.8822 114.44V115H71.3702ZM106.681 115V114.44L107.857 113.992C109.052 113.507 109.649 112.555 109.649 111.136V81.904C109.649 80.4107 109.052 79.4587 107.857 79.048L106.681 78.6V78.04H121.465C125.423 78.04 128.82 78.7867 131.657 80.28C134.532 81.736 136.735 83.8453 138.265 86.608C139.833 89.3333 140.617 92.6187 140.617 96.464C140.617 100.384 139.777 103.725 138.097 106.488C136.417 109.251 134.065 111.36 131.041 112.816C128.055 114.272 124.527 115 120.457 115H106.681ZM118.049 113.88H120.457C123.145 113.88 125.311 113.357 126.953 112.312C128.596 111.229 129.791 109.437 130.537 106.936C131.321 104.397 131.713 100.925 131.713 96.52C131.713 92.1147 131.321 88.6613 130.537 86.16C129.791 83.6213 128.615 81.8293 127.009 80.784C125.404 79.7013 123.295 79.16 120.681 79.16H118.049V113.88ZM141.627 115V114.44L142.803 113.992C143.587 113.693 144.072 113.339 144.259 112.928C144.483 112.48 144.595 111.883 144.595 111.136V81.904C144.595 81.1573 144.483 80.56 144.259 80.112C144.035 79.664 143.549 79.3093 142.803 79.048L141.627 78.6V78.04H155.907V78.6L154.899 79.048C154.189 79.3093 153.704 79.6827 153.443 80.168C153.181 80.616 153.051 81.2133 153.051 81.96V113.88H161.675C163.056 113.88 164.064 113.544 164.699 112.872C165.371 112.2 166.005 111.229 166.603 109.96L168.787 105.256H169.347L168.843 115H141.627ZM171.377 115V114.44L172.665 113.936C173.299 113.675 173.729 113.339 173.953 112.928C174.214 112.48 174.345 111.883 174.345 111.136V81.904C174.345 81.1573 174.233 80.5787 174.009 80.168C173.822 79.72 173.374 79.3653 172.665 79.104L171.377 78.6V78.04H198.201L198.537 86.664H197.977L195.569 81.4C195.233 80.728 194.878 80.1867 194.505 79.776C194.131 79.3653 193.571 79.16 192.825 79.16H182.745V95.344H188.737C189.483 95.344 190.043 95.1573 190.417 94.784C190.827 94.3733 191.182 93.832 191.481 93.16L192.601 90.92H193.161V101H192.601L191.481 98.648C191.145 97.976 190.79 97.4533 190.417 97.08C190.043 96.6693 189.483 96.464 188.737 96.464H182.745V113.88H194.057C194.803 113.88 195.382 113.693 195.793 113.32C196.203 112.909 196.539 112.349 196.801 111.64L199.097 106.376H199.657L199.321 115H171.377Z" fill="black"/>
</svg>
