<svg width="115" height="67" viewBox="0 0 115 67" fill="none" xmlns="http://www.w3.org/2000/svg">
<path d="M20.6259 22V21.68L21.2979 21.424C21.7459 21.2533 22.0232 21.0507 22.1299 20.816C22.2579 20.56 22.3219 20.2187 22.3219 19.792V3.088C22.3219 2.66133 22.2579 2.32 22.1299 2.064C22.0019 1.808 21.7245 1.60533 21.2979 1.456L20.6259 1.2V0.879999H28.7859V1.2L28.2099 1.456C27.8045 1.60533 27.5272 1.81867 27.3779 2.096C27.2285 2.352 27.1539 2.69333 27.1539 3.12V21.36H32.0819C32.8712 21.36 33.4472 21.168 33.8099 20.784C34.1939 20.4 34.5565 19.8453 34.8979 19.12L36.1459 16.432H36.4659L36.1779 22H20.6259ZM47.4856 22.576C46.1843 22.576 44.9256 22.3413 43.7096 21.872C42.515 21.4027 41.4376 20.7093 40.4776 19.792C39.539 18.8533 38.7923 17.6907 38.2376 16.304C37.683 14.9173 37.4056 13.296 37.4056 11.44C37.4056 9.60533 37.683 7.99467 38.2376 6.608C38.7923 5.22133 39.5496 4.06933 40.5096 3.152C41.4696 2.21333 42.547 1.50933 43.7416 1.04C44.9576 0.549332 46.2056 0.303999 47.4856 0.303999C48.787 0.303999 50.035 0.538666 51.2296 1.008C52.4456 1.456 53.523 2.14933 54.4616 3.088C55.4216 4.00533 56.179 5.168 56.7336 6.576C57.2883 7.96267 57.5656 9.584 57.5656 11.44C57.5656 13.2533 57.2883 14.864 56.7336 16.272C56.179 17.6587 55.4216 18.8213 54.4616 19.76C53.523 20.6773 52.4456 21.3813 51.2296 21.872C50.035 22.3413 48.787 22.576 47.4856 22.576ZM47.4856 21.904C48.659 21.904 49.6083 21.5947 50.3336 20.976C51.059 20.336 51.5816 19.2587 51.9016 17.744C52.243 16.208 52.4136 14.1067 52.4136 11.44C52.4136 8.752 52.243 6.65067 51.9016 5.136C51.5816 3.6 51.059 2.52267 50.3336 1.904C49.6083 1.264 48.659 0.943998 47.4856 0.943998C46.3336 0.943998 45.395 1.264 44.6696 1.904C43.9443 2.52267 43.411 3.6 43.0696 5.136C42.7496 6.65067 42.5896 8.752 42.5896 11.44C42.5896 14.1067 42.7496 16.208 43.0696 17.744C43.411 19.2587 43.9443 20.336 44.6696 20.976C45.395 21.5947 46.3336 21.904 47.4856 21.904ZM66.1974 22.096L59.3494 3.024C59.2 2.59733 58.9974 2.26667 58.7414 2.032C58.5067 1.776 58.176 1.584 57.7494 1.456L56.9814 1.2V0.879999H66.1974V1.2L65.2054 1.488C64.7147 1.616 64.4374 1.84 64.3734 2.16C64.3307 2.48 64.384 2.87467 64.5334 3.344L69.2694 17.392L74.0374 3.312C74.208 2.82133 74.2827 2.416 74.2614 2.096C74.2614 1.776 74.016 1.552 73.5254 1.424L72.6934 1.2V0.879999H77.1734V1.2L76.3094 1.456C75.904 1.56267 75.616 1.75467 75.4454 2.032C75.2747 2.288 75.1147 2.62933 74.9654 3.056L68.5654 22.096H66.1974ZM78.0321 22V21.68L78.7681 21.392C79.1308 21.2427 79.3761 21.0507 79.5041 20.816C79.6535 20.56 79.7281 20.2187 79.7281 19.792V3.088C79.7281 2.66133 79.6641 2.33067 79.5361 2.096C79.4295 1.84 79.1735 1.63733 78.7681 1.488L78.0321 1.2V0.879999H93.3601L93.5521 5.808H93.2321L91.8561 2.8C91.6641 2.416 91.4615 2.10667 91.2481 1.872C91.0348 1.63733 90.7148 1.52 90.2881 1.52H84.5281V10.768H87.9521C88.3788 10.768 88.6988 10.6613 88.9121 10.448C89.1468 10.2133 89.3495 9.904 89.5201 9.52L90.1601 8.24H90.4801V14H90.1601L89.5201 12.656C89.3281 12.272 89.1255 11.9733 88.9121 11.76C88.6988 11.5253 88.3788 11.408 87.9521 11.408H84.5281V21.36H90.9921C91.4188 21.36 91.7495 21.2533 91.9841 21.04C92.2188 20.8053 92.4108 20.4853 92.5601 20.08L93.8721 17.072H94.1921L94.0001 22H78.0321ZM11.6651 66.576C9.59579 66.576 7.71846 66.16 6.03313 65.328C4.36913 64.4747 3.04646 63.216 2.06512 61.552C1.08379 59.888 0.593125 57.8507 0.593125 55.44C0.593125 53.6053 0.891792 51.9947 1.48913 50.608C2.08646 49.2213 2.89713 48.0587 3.92113 47.12C4.96646 46.1813 6.16113 45.4773 7.50513 45.008C8.87046 44.5387 10.3105 44.304 11.8251 44.304C13.0411 44.304 14.1611 44.4427 15.1851 44.72C16.2091 44.9973 17.1691 45.3813 18.0651 45.872L18.1931 49.808H17.8731L16.2731 47.248C16.0598 46.8427 15.8251 46.48 15.5691 46.16C15.3131 45.8187 14.9931 45.5627 14.6091 45.392C14.2891 45.2427 13.9691 45.136 13.6491 45.072C13.3505 44.9867 12.9665 44.944 12.4971 44.944C11.2598 44.944 10.1291 45.2747 9.10513 45.936C8.10246 46.5973 7.29179 47.696 6.67313 49.232C6.07579 50.7467 5.77713 52.8267 5.77713 55.472C5.77713 58.096 6.06513 60.176 6.64113 61.712C7.21713 63.2267 7.99579 64.3147 8.97713 64.976C9.97979 65.616 11.0998 65.936 12.3371 65.936C13.0198 65.936 13.5638 65.8933 13.9691 65.808C14.3745 65.7013 14.7798 65.552 15.1851 65.36C15.5905 65.1893 15.8998 64.944 16.1131 64.624C16.3265 64.2827 16.5185 63.92 16.6891 63.536L18.0971 60.4H18.4171L18.3211 64.976C17.4251 65.4453 16.4225 65.8293 15.3131 66.128C14.2038 66.4267 12.9878 66.576 11.6651 66.576ZM19.3029 66V65.68L20.1029 65.392C20.5295 65.2213 20.8602 65.0187 21.0949 64.784C21.3295 64.528 21.5215 64.176 21.6709 63.728L28.2629 44.816H30.9829L37.4789 63.856C37.6495 64.3253 37.8415 64.688 38.0549 64.944C38.2682 65.1787 38.5989 65.3813 39.0469 65.552L39.4309 65.68V66H31.3029V65.68L31.7829 65.52C32.2309 65.3493 32.4975 65.1147 32.5829 64.816C32.6895 64.496 32.6789 64.1227 32.5509 63.696L31.0469 59.088H23.9429L22.4069 63.6C22.2575 64.0693 22.2042 64.4427 22.2469 64.72C22.3109 64.9973 22.5669 65.2213 23.0149 65.392L23.7189 65.68V66H19.3029ZM24.1669 58.448H30.8549L27.6229 48.496L24.1669 58.448ZM40.8544 66V65.68L41.9104 65.36C42.2944 65.2533 42.5717 65.0507 42.7424 64.752C42.913 64.432 42.9984 64.0587 42.9984 63.632V48.24C42.7637 47.728 42.5717 47.344 42.4224 47.088C42.2944 46.832 42.145 46.6187 41.9744 46.448C41.8037 46.256 41.569 46.0213 41.2704 45.744L40.7264 45.2V44.88H46.3904L57.0144 59.376V47.312C57.0144 46.8853 56.9397 46.5013 56.7904 46.16C56.6624 45.8187 56.385 45.5947 55.9584 45.488L54.9024 45.2V44.88H59.4784V45.2L58.6144 45.488C58.2304 45.616 57.9957 45.84 57.9104 46.16C57.825 46.48 57.7824 46.8533 57.7824 47.28V66.096H55.9904L43.7664 49.296V63.632C43.7664 64.0587 43.8304 64.4213 43.9584 64.72C44.0864 65.0187 44.353 65.232 44.7584 65.36L45.7184 65.68V66H40.8544ZM61.0321 66V65.68L61.7041 65.424C62.3868 65.1467 62.7281 64.6027 62.7281 63.792V47.088C62.7281 46.2347 62.3868 45.6907 61.7041 45.456L61.0321 45.2V44.88H69.4801C71.7415 44.88 73.6828 45.3067 75.3041 46.16C76.9468 46.992 78.2055 48.1973 79.0801 49.776C79.9761 51.3333 80.4241 53.2107 80.4241 55.408C80.4241 57.648 79.9441 59.5573 78.9841 61.136C78.0241 62.7147 76.6801 63.92 74.9521 64.752C73.2455 65.584 71.2295 66 68.9041 66H61.0321ZM67.5281 65.36H68.9041C70.4401 65.36 71.6775 65.0613 72.6161 64.464C73.5548 63.8453 74.2375 62.8213 74.6641 61.392C75.1121 59.9413 75.3361 57.9573 75.3361 55.44C75.3361 52.9227 75.1121 50.9493 74.6641 49.52C74.2375 48.0693 73.5655 47.0453 72.6481 46.448C71.7308 45.8293 70.5255 45.52 69.0321 45.52H67.5281V65.36ZM81.0009 66V65.68L81.6729 65.424C82.1209 65.2533 82.3982 65.0507 82.5049 64.816C82.6329 64.56 82.6969 64.2187 82.6969 63.792V47.088C82.6969 46.6613 82.6329 46.32 82.5049 46.064C82.3769 45.808 82.0995 45.6053 81.6729 45.456L81.0009 45.2V44.88H89.1609V45.2L88.5849 45.456C88.1795 45.6053 87.9022 45.8187 87.7529 46.096C87.6035 46.352 87.5289 46.6933 87.5289 47.12V65.36H92.4569C93.2462 65.36 93.8222 65.168 94.1849 64.784C94.5689 64.4 94.9315 63.8453 95.2729 63.12L96.5209 60.432H96.8409L96.5529 66H81.0009ZM98.0009 66V65.68L98.7369 65.392C99.0995 65.2427 99.3449 65.0507 99.4729 64.816C99.6222 64.56 99.6969 64.2187 99.6969 63.792V47.088C99.6969 46.6613 99.6329 46.3307 99.5049 46.096C99.3982 45.84 99.1422 45.6373 98.7369 45.488L98.0009 45.2V44.88H113.329L113.521 49.808H113.201L111.825 46.8C111.633 46.416 111.43 46.1067 111.217 45.872C111.004 45.6373 110.684 45.52 110.257 45.52H104.497V54.768H107.921C108.348 54.768 108.668 54.6613 108.881 54.448C109.116 54.2133 109.318 53.904 109.489 53.52L110.129 52.24H110.449V58H110.129L109.489 56.656C109.297 56.272 109.094 55.9733 108.881 55.76C108.668 55.5253 108.348 55.408 107.921 55.408H104.497V65.36H110.961C111.388 65.36 111.718 65.2533 111.953 65.04C112.188 64.8053 112.38 64.4853 112.529 64.08L113.841 61.072H114.161L113.969 66H98.0009Z" fill="black"/>
</svg>
