<svg width="199" height="116" viewBox="0 0 199 116" fill="none" xmlns="http://www.w3.org/2000/svg">
<path d="M0.232 38V37.44L1.408 36.992C2.192 36.6933 2.67733 36.3387 2.864 35.928C3.088 35.48 3.2 34.8827 3.2 34.136V4.904C3.2 4.15733 3.088 3.56 2.864 3.112C2.64 2.664 2.15467 2.30933 1.408 2.048L0.232 1.6V1.04H14.512V1.6L13.504 2.048C12.7947 2.30933 12.3093 2.68266 12.048 3.168C11.7867 3.616 11.656 4.21333 11.656 4.96V36.88H20.28C21.6613 36.88 22.6693 36.544 23.304 35.872C23.976 35.2 24.6107 34.2293 25.208 32.96L27.392 28.256H27.952L27.448 38H0.232ZM47.2366 39.008C44.9592 39.008 42.7566 38.5973 40.6286 37.776C38.5379 36.9547 36.6526 35.7413 34.9726 34.136C33.3299 32.4933 32.0232 30.4587 31.0526 28.032C30.0819 25.6053 29.5966 22.768 29.5966 19.52C29.5966 16.3093 30.0819 13.4907 31.0526 11.064C32.0232 8.63733 33.3486 6.62133 35.0286 5.016C36.7086 3.37333 38.5939 2.14133 40.6846 1.32C42.8126 0.461332 44.9966 0.0319982 47.2366 0.0319982C49.5139 0.0319982 51.6979 0.442665 53.7886 1.264C55.9166 2.048 57.8019 3.26133 59.4446 4.904C61.1246 6.50933 62.4499 8.544 63.4206 11.008C64.3912 13.4347 64.8766 16.272 64.8766 19.52C64.8766 22.6933 64.3912 25.512 63.4206 27.976C62.4499 30.4027 61.1246 32.4373 59.4446 34.08C57.8019 35.6853 55.9166 36.9173 53.7886 37.776C51.6979 38.5973 49.5139 39.008 47.2366 39.008ZM47.2366 37.832C49.2899 37.832 50.9512 37.2907 52.2206 36.208C53.4899 35.088 54.4046 33.2027 54.9646 30.552C55.5619 27.864 55.8606 24.1867 55.8606 19.52C55.8606 14.816 55.5619 11.1387 54.9646 8.488C54.4046 5.8 53.4899 3.91466 52.2206 2.832C50.9512 1.712 49.2899 1.152 47.2366 1.152C45.2206 1.152 43.5779 1.712 42.3086 2.832C41.0392 3.91466 40.1059 5.8 39.5086 8.488C38.9486 11.1387 38.6686 14.816 38.6686 19.52C38.6686 24.1867 38.9486 27.864 39.5086 30.552C40.1059 33.2027 41.0392 35.088 42.3086 36.208C43.5779 37.2907 45.2206 37.832 47.2366 37.832ZM79.9821 38.168L67.9981 4.792C67.7368 4.04533 67.3821 3.46667 66.9341 3.056C66.5235 2.608 65.9448 2.272 65.1981 2.048L63.8541 1.6V1.04H79.9821V1.6L78.2461 2.104C77.3875 2.328 76.9021 2.72 76.7901 3.28C76.7155 3.84 76.8088 4.53067 77.0701 5.352L85.3581 29.936L93.7021 5.296C94.0008 4.43733 94.1315 3.728 94.0941 3.168C94.0941 2.608 93.6648 2.216 92.8061 1.992L91.3501 1.6V1.04H99.1901V1.6L97.6781 2.048C96.9688 2.23467 96.4648 2.57067 96.1661 3.056C95.8675 3.504 95.5875 4.10133 95.3261 4.848L84.1261 38.168H79.9821ZM100.693 38V37.44L101.981 36.936C102.616 36.6747 103.045 36.3387 103.269 35.928C103.53 35.48 103.661 34.8827 103.661 34.136V4.904C103.661 4.15733 103.549 3.57867 103.325 3.168C103.138 2.72 102.69 2.36533 101.981 2.104L100.693 1.6V1.04H127.517L127.853 9.664H127.293L124.885 4.4C124.549 3.728 124.194 3.18667 123.821 2.776C123.448 2.36533 122.888 2.16 122.141 2.16H112.061V18.344H118.053C118.8 18.344 119.36 18.1573 119.733 17.784C120.144 17.3733 120.498 16.832 120.797 16.16L121.917 13.92H122.477V24H121.917L120.797 21.648C120.461 20.976 120.106 20.4533 119.733 20.08C119.36 19.6693 118.8 19.464 118.053 19.464H112.061V36.88H123.373C124.12 36.88 124.698 36.6933 125.109 36.32C125.52 35.9093 125.856 35.3493 126.117 34.64L128.413 29.376H128.973L128.637 38H100.693ZM19.496 116.008C15.8747 116.008 12.5893 115.28 9.64 113.824C6.728 112.331 4.41333 110.128 2.696 107.216C0.978667 104.304 0.12 100.739 0.12 96.52C0.12 93.3093 0.642667 90.4907 1.688 88.064C2.73333 85.6373 4.152 83.6027 5.944 81.96C7.77333 80.3173 9.864 79.0853 12.216 78.264C14.6053 77.4427 17.1253 77.032 19.776 77.032C21.904 77.032 23.864 77.2747 25.656 77.76C27.448 78.2453 29.128 78.9173 30.696 79.776L30.92 86.664H30.36L27.56 82.184C27.1867 81.4747 26.776 80.84 26.328 80.28C25.88 79.6827 25.32 79.2347 24.648 78.936C24.088 78.6747 23.528 78.488 22.968 78.376C22.4453 78.2267 21.7733 78.152 20.952 78.152C18.7867 78.152 16.808 78.7307 15.016 79.888C13.2613 81.0453 11.8427 82.968 10.76 85.656C9.71467 88.3067 9.192 91.9467 9.192 96.576C9.192 101.168 9.696 104.808 10.704 107.496C11.712 110.147 13.0747 112.051 14.792 113.208C16.5467 114.328 18.5067 114.888 20.672 114.888C21.8667 114.888 22.8187 114.813 23.528 114.664C24.2373 114.477 24.9467 114.216 25.656 113.88C26.3653 113.581 26.9067 113.152 27.28 112.592C27.6533 111.995 27.9893 111.36 28.288 110.688L30.752 105.2H31.312L31.144 113.208C29.576 114.029 27.8213 114.701 25.88 115.224C23.9387 115.747 21.8107 116.008 19.496 116.008ZM32.8621 115V114.44L34.2621 113.936C35.0087 113.637 35.5874 113.283 35.9981 112.872C36.4087 112.424 36.7447 111.808 37.0061 111.024L48.5421 77.928H53.3021L64.6701 111.248C64.9687 112.069 65.3047 112.704 65.6781 113.152C66.0514 113.563 66.6301 113.917 67.4141 114.216L68.0861 114.44V115H53.8621V114.44L54.7021 114.16C55.4861 113.861 55.9527 113.451 56.1021 112.928C56.2887 112.368 56.2701 111.715 56.0461 110.968L53.4141 102.904H40.9821L38.2941 110.8C38.0327 111.621 37.9394 112.275 38.0141 112.76C38.1261 113.245 38.5741 113.637 39.3581 113.936L40.5901 114.44V115H32.8621ZM41.3741 101.784H53.0781L47.4221 84.368L41.3741 101.784ZM70.5772 115V114.44L72.4252 113.88C73.0972 113.693 73.5825 113.339 73.8812 112.816C74.1799 112.256 74.3292 111.603 74.3292 110.856V83.92C73.9185 83.024 73.5825 82.352 73.3212 81.904C73.0972 81.456 72.8359 81.0827 72.5372 80.784C72.2385 80.448 71.8279 80.0373 71.3052 79.552L70.3532 78.6V78.04H80.2652L98.8572 103.408V82.296C98.8572 81.5493 98.7265 80.8773 98.4652 80.28C98.2412 79.6827 97.7559 79.2907 97.0092 79.104L95.1612 78.6V78.04H103.169V78.6L101.657 79.104C100.985 79.328 100.575 79.72 100.425 80.28C100.276 80.84 100.201 81.4933 100.201 82.24V115.168H97.0652L75.6732 85.768V110.856C75.6732 111.603 75.7852 112.237 76.0092 112.76C76.2332 113.283 76.6999 113.656 77.4092 113.88L79.0892 114.44V115H70.5772ZM105.888 115V114.44L107.064 113.992C108.259 113.507 108.856 112.555 108.856 111.136V81.904C108.856 80.4107 108.259 79.4587 107.064 79.048L105.888 78.6V78.04H120.672C124.63 78.04 128.027 78.7867 130.864 80.28C133.739 81.736 135.942 83.8453 137.472 86.608C139.04 89.3333 139.824 92.6187 139.824 96.464C139.824 100.384 138.984 103.725 137.304 106.488C135.624 109.251 133.272 111.36 130.248 112.816C127.262 114.272 123.734 115 119.664 115H105.888ZM117.256 113.88H119.664C122.352 113.88 124.518 113.357 126.16 112.312C127.803 111.229 128.998 109.437 129.744 106.936C130.528 104.397 130.92 100.925 130.92 96.52C130.92 92.1147 130.528 88.6613 129.744 86.16C128.998 83.6213 127.822 81.8293 126.216 80.784C124.611 79.7013 122.502 79.16 119.888 79.16H117.256V113.88ZM140.834 115V114.44L142.01 113.992C142.794 113.693 143.279 113.339 143.466 112.928C143.69 112.48 143.802 111.883 143.802 111.136V81.904C143.802 81.1573 143.69 80.56 143.466 80.112C143.242 79.664 142.756 79.3093 142.01 79.048L140.834 78.6V78.04H155.114V78.6L154.106 79.048C153.396 79.3093 152.911 79.6827 152.65 80.168C152.388 80.616 152.258 81.2133 152.258 81.96V113.88H160.882C162.263 113.88 163.271 113.544 163.906 112.872C164.578 112.2 165.212 111.229 165.81 109.96L167.994 105.256H168.554L168.05 115H140.834ZM170.584 115V114.44L171.872 113.936C172.506 113.675 172.936 113.339 173.16 112.928C173.421 112.48 173.552 111.883 173.552 111.136V81.904C173.552 81.1573 173.44 80.5787 173.216 80.168C173.029 79.72 172.581 79.3653 171.872 79.104L170.584 78.6V78.04H197.408L197.744 86.664H197.184L194.776 81.4C194.44 80.728 194.085 80.1867 193.712 79.776C193.338 79.3653 192.778 79.16 192.032 79.16H181.952V95.344H187.944C188.69 95.344 189.25 95.1573 189.624 94.784C190.034 94.3733 190.389 93.832 190.688 93.16L191.808 90.92H192.368V101H191.808L190.688 98.648C190.352 97.976 189.997 97.4533 189.624 97.08C189.25 96.6693 188.69 96.464 187.944 96.464H181.952V113.88H193.264C194.01 113.88 194.589 113.693 195 113.32C195.41 112.909 195.746 112.349 196.008 111.64L198.304 106.376H198.864L198.528 115H170.584Z" fill="black"/>
</svg>
