<svg width="294" height="34" viewBox="0 0 294 34" fill="none" xmlns="http://www.w3.org/2000/svg">
<path d="M0.141938 33V32.52L1.14994 32.136C1.82194 31.88 2.23794 31.576 2.39794 31.224C2.58994 30.84 2.68594 30.328 2.68594 29.688V4.632C2.68594 3.992 2.58994 3.48 2.39794 3.096C2.20594 2.712 1.78994 2.408 1.14994 2.184L0.141938 1.8V1.32H12.3819V1.8L11.5179 2.184C10.9099 2.408 10.4939 2.728 10.2699 3.144C10.0459 3.528 9.93394 4.04 9.93394 4.68V32.04H17.3259C18.5099 32.04 19.3739 31.752 19.9179 31.176C20.4939 30.6 21.0379 29.768 21.5499 28.68L23.4219 24.648H23.9019L23.4699 33H0.141938ZM40.4316 33.864C38.4796 33.864 36.5916 33.512 34.7676 32.808C32.9756 32.104 31.3596 31.064 29.9196 29.688C28.5116 28.28 27.3916 26.536 26.5596 24.456C25.7276 22.376 25.3116 19.944 25.3116 17.16C25.3116 14.408 25.7276 11.992 26.5596 9.912C27.3916 7.832 28.5276 6.104 29.9676 4.728C31.4076 3.32 33.0236 2.264 34.8156 1.56C36.6396 0.823998 38.5116 0.455998 40.4316 0.455998C42.3836 0.455998 44.2556 0.807999 46.0476 1.512C47.8716 2.184 49.4876 3.224 50.8956 4.632C52.3356 6.008 53.4716 7.752 54.3036 9.864C55.1356 11.944 55.5516 14.376 55.5516 17.16C55.5516 19.88 55.1356 22.296 54.3036 24.408C53.4716 26.488 52.3356 28.232 50.8956 29.64C49.4876 31.016 47.8716 32.072 46.0476 32.808C44.2556 33.512 42.3836 33.864 40.4316 33.864ZM40.4316 32.856C42.1916 32.856 43.6156 32.392 44.7036 31.464C45.7916 30.504 46.5756 28.888 47.0556 26.616C47.5676 24.312 47.8236 21.16 47.8236 17.16C47.8236 13.128 47.5676 9.976 47.0556 7.704C46.5756 5.4 45.7916 3.784 44.7036 2.856C43.6156 1.896 42.1916 1.416 40.4316 1.416C38.7036 1.416 37.2956 1.896 36.2076 2.856C35.1196 3.784 34.3196 5.4 33.8076 7.704C33.3276 9.976 33.0876 13.128 33.0876 17.16C33.0876 21.16 33.3276 24.312 33.8076 26.616C34.3196 28.888 35.1196 30.504 36.2076 31.464C37.2956 32.392 38.7036 32.856 40.4316 32.856ZM68.4992 33.144L58.2272 4.536C58.0032 3.896 57.6992 3.4 57.3152 3.048C56.9632 2.664 56.4672 2.376 55.8272 2.184L54.6752 1.8V1.32H68.4992V1.8L67.0112 2.232C66.2752 2.424 65.8592 2.76 65.7632 3.24C65.6992 3.72 65.7792 4.312 66.0032 5.016L73.1072 26.088L80.2592 4.968C80.5152 4.232 80.6272 3.624 80.5952 3.144C80.5952 2.664 80.2272 2.328 79.4912 2.136L78.2432 1.8V1.32H84.9632V1.8L83.6672 2.184C83.0592 2.344 82.6272 2.632 82.3712 3.048C82.1152 3.432 81.8752 3.944 81.6512 4.584L72.0512 33.144H68.4992ZM86.2513 33V32.52L87.3553 32.088C87.8993 31.864 88.2673 31.576 88.4593 31.224C88.6833 30.84 88.7953 30.328 88.7953 29.688V4.632C88.7953 3.992 88.6993 3.496 88.5073 3.144C88.3473 2.76 87.9633 2.456 87.3553 2.232L86.2513 1.8V1.32H109.243L109.531 8.712H109.051L106.987 4.2C106.699 3.624 106.395 3.16 106.075 2.808C105.755 2.456 105.275 2.28 104.635 2.28H95.9953V16.152H101.131C101.771 16.152 102.251 15.992 102.571 15.672C102.923 15.32 103.227 14.856 103.483 14.28L104.443 12.36H104.923V21H104.443L103.483 18.984C103.195 18.408 102.891 17.96 102.571 17.64C102.251 17.288 101.771 17.112 101.131 17.112H95.9953V32.04H105.691C106.331 32.04 106.827 31.88 107.179 31.56C107.531 31.208 107.819 30.728 108.043 30.12L110.011 25.608H110.491L110.203 33H86.2513ZM139.841 33.864C136.737 33.864 133.921 33.24 131.393 31.992C128.897 30.712 126.913 28.824 125.441 26.328C123.969 23.832 123.233 20.776 123.233 17.16C123.233 14.408 123.681 11.992 124.577 9.912C125.473 7.832 126.689 6.088 128.225 4.68C129.793 3.272 131.585 2.216 133.601 1.512C135.649 0.807999 137.809 0.455998 140.081 0.455998C141.905 0.455998 143.585 0.663999 145.121 1.08C146.657 1.496 148.097 2.072 149.441 2.808L149.633 8.712H149.153L146.753 4.872C146.433 4.264 146.081 3.72 145.697 3.24C145.313 2.728 144.833 2.344 144.257 2.088C143.777 1.864 143.297 1.704 142.817 1.608C142.369 1.48 141.793 1.416 141.089 1.416C139.233 1.416 137.537 1.912 136.001 2.904C134.497 3.896 133.281 5.544 132.353 7.848C131.457 10.12 131.009 13.24 131.009 17.208C131.009 21.144 131.441 24.264 132.305 26.568C133.169 28.84 134.337 30.472 135.809 31.464C137.313 32.424 138.993 32.904 140.849 32.904C141.873 32.904 142.689 32.84 143.297 32.712C143.905 32.552 144.513 32.328 145.121 32.04C145.729 31.784 146.193 31.416 146.513 30.936C146.833 30.424 147.121 29.88 147.377 29.304L149.489 24.6H149.969L149.825 31.464C148.481 32.168 146.977 32.744 145.313 33.192C143.649 33.64 141.825 33.864 139.841 33.864ZM151.298 33V32.52L152.498 32.088C153.138 31.832 153.634 31.528 153.986 31.176C154.338 30.792 154.626 30.264 154.85 29.592L164.738 1.224H168.818L178.562 29.784C178.818 30.488 179.106 31.032 179.426 31.416C179.746 31.768 180.242 32.072 180.914 32.328L181.49 32.52V33H169.298V32.52L170.018 32.28C170.69 32.024 171.09 31.672 171.218 31.224C171.378 30.744 171.362 30.184 171.17 29.544L168.914 22.632H158.258L155.954 29.4C155.73 30.104 155.65 30.664 155.714 31.08C155.81 31.496 156.194 31.832 156.866 32.088L157.922 32.52V33H151.298ZM158.594 21.672H168.626L163.778 6.744L158.594 21.672ZM183.625 33V32.52L185.209 32.04C185.785 31.88 186.201 31.576 186.457 31.128C186.713 30.648 186.841 30.088 186.841 29.448V6.36C186.489 5.592 186.201 5.016 185.977 4.632C185.785 4.248 185.561 3.928 185.305 3.672C185.049 3.384 184.697 3.032 184.249 2.616L183.433 1.8V1.32H191.929L207.865 23.064V4.968C207.865 4.328 207.753 3.752 207.529 3.24C207.337 2.728 206.921 2.392 206.281 2.232L204.697 1.8V1.32H211.561V1.8L210.265 2.232C209.689 2.424 209.337 2.76 209.209 3.24C209.081 3.72 209.017 4.28 209.017 4.92V33.144H206.329L187.993 7.944V29.448C187.993 30.088 188.089 30.632 188.281 31.08C188.473 31.528 188.873 31.848 189.481 32.04L190.921 32.52V33H183.625ZM213.892 33V32.52L214.9 32.136C215.924 31.72 216.436 30.904 216.436 29.688V4.632C216.436 3.352 215.924 2.536 214.9 2.184L213.892 1.8V1.32H226.564C229.956 1.32 232.868 1.96 235.3 3.24C237.764 4.488 239.652 6.296 240.964 8.664C242.308 11 242.98 13.816 242.98 17.112C242.98 20.472 242.26 23.336 240.82 25.704C239.38 28.072 237.364 29.88 234.772 31.128C232.212 32.376 229.188 33 225.7 33H213.892ZM223.636 32.04H225.7C228.004 32.04 229.86 31.592 231.268 30.696C232.676 29.768 233.7 28.232 234.34 26.088C235.012 23.912 235.348 20.936 235.348 17.16C235.348 13.384 235.012 10.424 234.34 8.28C233.7 6.104 232.692 4.568 231.316 3.672C229.94 2.744 228.132 2.28 225.892 2.28H223.636V32.04ZM243.845 33V32.52L244.853 32.136C245.525 31.88 245.941 31.576 246.101 31.224C246.293 30.84 246.389 30.328 246.389 29.688V4.632C246.389 3.992 246.293 3.48 246.101 3.096C245.909 2.712 245.493 2.408 244.853 2.184L243.845 1.8V1.32H256.085V1.8L255.221 2.184C254.613 2.408 254.197 2.728 253.973 3.144C253.749 3.528 253.637 4.04 253.637 4.68V32.04H261.029C262.213 32.04 263.077 31.752 263.621 31.176C264.197 30.6 264.741 29.768 265.253 28.68L267.125 24.648H267.605L267.173 33H243.845ZM269.345 33V32.52L270.449 32.088C270.993 31.864 271.361 31.576 271.553 31.224C271.777 30.84 271.889 30.328 271.889 29.688V4.632C271.889 3.992 271.793 3.496 271.601 3.144C271.441 2.76 271.057 2.456 270.449 2.232L269.345 1.8V1.32H292.337L292.625 8.712H292.145L290.081 4.2C289.793 3.624 289.489 3.16 289.169 2.808C288.849 2.456 288.369 2.28 287.729 2.28H279.089V16.152H284.225C284.865 16.152 285.345 15.992 285.665 15.672C286.017 15.32 286.321 14.856 286.577 14.28L287.537 12.36H288.017V21H287.537L286.577 18.984C286.289 18.408 285.985 17.96 285.665 17.64C285.345 17.288 284.865 17.112 284.225 17.112H279.089V32.04H288.785C289.425 32.04 289.921 31.88 290.273 31.56C290.625 31.208 290.913 30.728 291.137 30.12L293.105 25.608H293.585L293.297 33H269.345Z" fill="black"/>
</svg>
