<svg width="218" height="23" viewBox="0 0 218 23" fill="none" xmlns="http://www.w3.org/2000/svg">
<path d="M7.816 22.072L2.68 7.768C2.568 7.448 2.416 7.2 2.224 7.024C2.048 6.832 1.8 6.688 1.48 6.592L0.904 6.4V6.16H7.816V6.4L7.072 6.616C6.704 6.712 6.496 6.88 6.448 7.12C6.416 7.36 6.456 7.656 6.568 8.008L10.12 18.544L13.696 7.984C13.824 7.616 13.88 7.312 13.864 7.072C13.864 6.832 13.68 6.664 13.312 6.568L12.688 6.4V6.16H16.048V6.4L15.4 6.592C15.096 6.672 14.88 6.816 14.752 7.024C14.624 7.216 14.504 7.472 14.392 7.792L9.592 22.072H7.816ZM16.6921 22V21.76L17.2441 21.544C17.5161 21.432 17.7001 21.288 17.7961 21.112C17.9081 20.92 17.9641 20.664 17.9641 20.344V7.816C17.9641 7.496 17.9161 7.248 17.8201 7.072C17.7401 6.88 17.5481 6.728 17.2441 6.616L16.6921 6.4V6.16H28.1881L28.3321 9.856H28.0921L27.0601 7.6C26.9161 7.312 26.7641 7.08 26.6041 6.904C26.4441 6.728 26.2041 6.64 25.8841 6.64H21.5641V13.576H24.1321C24.4521 13.576 24.6921 13.496 24.8521 13.336C25.0281 13.16 25.1801 12.928 25.3081 12.64L25.7881 11.68H26.0281V16H25.7881L25.3081 14.992C25.1641 14.704 25.0121 14.48 24.8521 14.32C24.6921 14.144 24.4521 14.056 24.1321 14.056H21.5641V21.52H26.4121C26.7321 21.52 26.9801 21.44 27.1561 21.28C27.3321 21.104 27.4761 20.864 27.5881 20.56L28.5721 18.304H28.8121L28.6681 22H16.6921ZM30.0046 22V21.76L30.5086 21.568C30.8446 21.44 31.0526 21.288 31.1326 21.112C31.2286 20.92 31.2766 20.664 31.2766 20.344V7.816C31.2766 7.496 31.2286 7.24 31.1326 7.048C31.0366 6.856 30.8286 6.704 30.5086 6.592L30.0046 6.4V6.16H36.1246V6.4L35.6926 6.592C35.3886 6.704 35.1806 6.864 35.0686 7.072C34.9566 7.264 34.9006 7.52 34.9006 7.84V21.52H38.5966C39.1886 21.52 39.6206 21.376 39.8926 21.088C40.1806 20.8 40.4526 20.384 40.7086 19.84L41.6446 17.824H41.8846L41.6686 22H30.0046ZM42.6295 22V21.76L43.2295 21.544C43.5495 21.416 43.7975 21.264 43.9735 21.088C44.1495 20.896 44.2935 20.632 44.4055 20.296L49.3495 6.112H51.3895L56.2615 20.392C56.3895 20.744 56.5335 21.016 56.6935 21.208C56.8535 21.384 57.1015 21.536 57.4375 21.664L57.7255 21.76V22H51.6295V21.76L51.9895 21.64C52.3255 21.512 52.5255 21.336 52.5895 21.112C52.6695 20.872 52.6615 20.592 52.5655 20.272L51.4375 16.816H46.1095L44.9575 20.2C44.8455 20.552 44.8055 20.832 44.8375 21.04C44.8855 21.248 45.0775 21.416 45.4135 21.544L45.9415 21.76V22H42.6295ZM46.2775 16.336H51.2935L48.8695 8.872L46.2775 16.336ZM63.7349 22.432C62.8549 22.432 61.9589 22.32 61.0469 22.096C60.1349 21.888 59.3749 21.608 58.7669 21.256L58.8869 17.992H59.1269L59.8709 19.552C60.0949 20 60.3349 20.4 60.5909 20.752C60.8469 21.088 61.1989 21.352 61.6469 21.544C61.9669 21.704 62.2709 21.816 62.5589 21.88C62.8629 21.928 63.1989 21.952 63.5669 21.952C64.5429 21.952 65.3109 21.688 65.8709 21.16C66.4469 20.632 66.7349 19.952 66.7349 19.12C66.7349 18.336 66.5429 17.728 66.1589 17.296C65.7749 16.848 65.1589 16.416 64.3109 16L63.3269 15.568C61.9509 14.96 60.8709 14.264 60.0869 13.48C59.3189 12.68 58.9349 11.624 58.9349 10.312C58.9349 9.368 59.1749 8.552 59.6549 7.864C60.1509 7.176 60.8309 6.648 61.6949 6.28C62.5749 5.912 63.5989 5.728 64.7669 5.728C65.6149 5.728 66.4149 5.84 67.1669 6.064C67.9349 6.288 68.5989 6.592 69.1589 6.976L69.0149 9.856H68.7749L67.7909 8.056C67.5189 7.496 67.2469 7.104 66.9749 6.88C66.7029 6.64 66.3909 6.472 66.0389 6.376C65.8309 6.312 65.6389 6.272 65.4629 6.256C65.2869 6.224 65.0629 6.208 64.7909 6.208C63.9749 6.208 63.2869 6.448 62.7269 6.928C62.1669 7.392 61.8869 8.024 61.8869 8.824C61.8869 9.64 62.1029 10.296 62.5349 10.792C62.9669 11.272 63.5989 11.704 64.4309 12.088L65.5349 12.568C67.0709 13.24 68.1749 13.96 68.8469 14.728C69.5189 15.48 69.8549 16.456 69.8549 17.656C69.8549 19.064 69.3189 20.216 68.2469 21.112C67.1909 21.992 65.6869 22.432 63.7349 22.432ZM75.9811 22V21.76L76.5811 21.544C76.9011 21.416 77.1491 21.264 77.3251 21.088C77.5011 20.896 77.6451 20.632 77.7571 20.296L82.7011 6.112H84.7411L89.6131 20.392C89.7411 20.744 89.8851 21.016 90.0451 21.208C90.2051 21.384 90.4531 21.536 90.7891 21.664L91.0771 21.76V22H84.9811V21.76L85.3411 21.64C85.6771 21.512 85.8771 21.336 85.9411 21.112C86.0211 20.872 86.0131 20.592 85.9171 20.272L84.7891 16.816H79.4611L78.3091 20.2C78.1971 20.552 78.1571 20.832 78.1891 21.04C78.2371 21.248 78.4291 21.416 78.7651 21.544L79.2931 21.76V22H75.9811ZM79.6291 16.336H84.6451L82.2211 8.872L79.6291 16.336ZM91.8327 22V21.76L92.3367 21.592C92.6567 21.48 92.8647 21.336 92.9607 21.16C93.0567 20.968 93.1047 20.704 93.1047 20.368V7.816C93.1047 7.496 93.0567 7.248 92.9607 7.072C92.8807 6.88 92.6887 6.728 92.3847 6.616L91.8327 6.4V6.16H98.6967C100.585 6.16 102.033 6.52 103.041 7.24C104.049 7.944 104.553 8.928 104.553 10.192C104.553 10.896 104.289 11.6 103.761 12.304C103.233 13.008 102.401 13.552 101.265 13.936L104.601 20.56C104.745 20.832 104.905 21.056 105.081 21.232C105.273 21.392 105.521 21.536 105.825 21.664L106.137 21.784V22H101.841L98.2887 14.44H96.6567V20.368C96.6567 20.672 96.7047 20.92 96.8007 21.112C96.8967 21.304 97.0967 21.448 97.4007 21.544L97.9767 21.76V22H91.8327ZM96.6567 13.96H97.8087C98.9607 13.96 99.7927 13.656 100.305 13.048C100.817 12.424 101.073 11.504 101.073 10.288C101.073 9.056 100.833 8.144 100.353 7.552C99.8727 6.944 99.0647 6.64 97.9287 6.64H96.6567V13.96ZM113.946 22.432C112.97 22.432 112.026 22.256 111.114 21.904C110.218 21.552 109.41 21.032 108.69 20.344C107.986 19.64 107.426 18.768 107.01 17.728C106.594 16.688 106.386 15.472 106.386 14.08C106.386 12.704 106.594 11.496 107.01 10.456C107.426 9.416 107.994 8.552 108.714 7.864C109.434 7.16 110.242 6.632 111.138 6.28C112.05 5.912 112.986 5.728 113.946 5.728C114.922 5.728 115.858 5.904 116.754 6.256C117.666 6.592 118.474 7.112 119.178 7.816C119.898 8.504 120.466 9.376 120.882 10.432C121.298 11.472 121.506 12.688 121.506 14.08C121.506 15.44 121.298 16.648 120.882 17.704C120.466 18.744 119.898 19.616 119.178 20.32C118.474 21.008 117.666 21.536 116.754 21.904C115.858 22.256 114.922 22.432 113.946 22.432ZM113.946 21.928C114.826 21.928 115.538 21.696 116.082 21.232C116.626 20.752 117.018 19.944 117.258 18.808C117.514 17.656 117.642 16.08 117.642 14.08C117.642 12.064 117.514 10.488 117.258 9.352C117.018 8.2 116.626 7.392 116.082 6.928C115.538 6.448 114.826 6.208 113.946 6.208C113.082 6.208 112.378 6.448 111.834 6.928C111.29 7.392 110.89 8.2 110.634 9.352C110.394 10.488 110.274 12.064 110.274 14.08C110.274 16.08 110.394 17.656 110.634 18.808C110.89 19.944 111.29 20.752 111.834 21.232C112.378 21.696 113.082 21.928 113.946 21.928ZM121.996 22V21.76L122.476 21.592C123.02 21.416 123.292 20.96 123.292 20.224V7.936C123.292 7.616 123.252 7.36 123.172 7.168C123.108 6.976 122.924 6.816 122.62 6.688L121.996 6.4V6.16H126.628L131.068 17.776L135.244 6.16H139.972V6.4L139.588 6.544C139.284 6.656 139.076 6.816 138.964 7.024C138.852 7.216 138.796 7.472 138.796 7.792V20.344C138.796 20.664 138.836 20.912 138.916 21.088C138.996 21.264 139.188 21.416 139.492 21.544L139.972 21.76V22H133.996V21.76L134.5 21.544C134.804 21.416 134.996 21.264 135.076 21.088C135.156 20.912 135.196 20.664 135.196 20.344V14.944L135.244 8.08L130.228 22H129.028L123.796 8.248L123.868 14.224V20.272C123.868 20.624 123.916 20.912 124.012 21.136C124.124 21.344 124.332 21.496 124.636 21.592L125.164 21.76V22H121.996ZM140.692 22V21.76L141.292 21.544C141.612 21.416 141.86 21.264 142.036 21.088C142.212 20.896 142.356 20.632 142.468 20.296L147.412 6.112H149.452L154.324 20.392C154.452 20.744 154.596 21.016 154.756 21.208C154.916 21.384 155.164 21.536 155.5 21.664L155.788 21.76V22H149.692V21.76L150.052 21.64C150.388 21.512 150.588 21.336 150.652 21.112C150.732 20.872 150.724 20.592 150.628 20.272L149.5 16.816H144.172L143.02 20.2C142.908 20.552 142.868 20.832 142.9 21.04C142.948 21.248 143.14 21.416 143.476 21.544L144.004 21.76V22H140.692ZM144.34 16.336H149.356L146.932 8.872L144.34 16.336ZM146.236 4.6C146.652 4.184 147.068 3.76 147.484 3.328C147.9 2.88 148.3 2.456 148.684 2.056C149.084 1.624 149.404 1.336 149.644 1.192C149.9 1.048 150.148 0.975999 150.388 0.975999C150.692 0.975999 150.932 1.072 151.108 1.264C151.3 1.44 151.396 1.664 151.396 1.936C151.396 2.448 150.9 2.928 149.908 3.376C149.316 3.632 148.74 3.88 148.18 4.12C147.636 4.36 147.068 4.616 146.476 4.888L146.236 4.6ZM158.142 22V21.76L159.126 21.52C159.782 21.376 160.11 20.976 160.11 20.32V6.64H158.07C157.478 6.64 157.054 6.8 156.798 7.12C156.542 7.424 156.27 7.848 155.982 8.392L155.118 10.072H154.878L154.998 6.16H168.846L168.942 10.072H168.702L167.838 8.392C167.566 7.848 167.302 7.424 167.046 7.12C166.79 6.8 166.366 6.64 165.774 6.64H163.734V20.32C163.734 20.976 164.062 21.376 164.718 21.52L165.702 21.76V22H158.142ZM169.973 22V21.76L170.453 21.568C170.773 21.456 170.981 21.304 171.077 21.112C171.189 20.92 171.245 20.664 171.245 20.344V7.816C171.245 7.496 171.197 7.24 171.101 7.048C171.005 6.856 170.789 6.704 170.453 6.592L169.973 6.4V6.16H176.141V6.4L175.661 6.592C175.341 6.704 175.125 6.856 175.013 7.048C174.917 7.24 174.869 7.496 174.869 7.816V20.344C174.869 20.664 174.917 20.92 175.013 21.112C175.125 21.288 175.341 21.44 175.661 21.568L176.141 21.76V22H169.973ZM185.05 22.432C183.498 22.432 182.09 22.12 180.826 21.496C179.578 20.856 178.586 19.912 177.85 18.664C177.114 17.416 176.746 15.888 176.746 14.08C176.746 12.704 176.97 11.496 177.418 10.456C177.866 9.416 178.474 8.544 179.242 7.84C180.026 7.136 180.922 6.608 181.93 6.256C182.954 5.904 184.034 5.728 185.17 5.728C186.082 5.728 186.922 5.832 187.69 6.04C188.458 6.248 189.178 6.536 189.85 6.904L189.946 9.856H189.706L188.506 7.936C188.346 7.632 188.17 7.36 187.978 7.12C187.786 6.864 187.546 6.672 187.258 6.544C187.018 6.432 186.778 6.352 186.538 6.304C186.314 6.24 186.026 6.208 185.674 6.208C184.746 6.208 183.898 6.456 183.13 6.952C182.378 7.448 181.77 8.272 181.306 9.424C180.858 10.56 180.634 12.12 180.634 14.104C180.634 16.072 180.85 17.632 181.282 18.784C181.714 19.92 182.298 20.736 183.034 21.232C183.786 21.712 184.626 21.952 185.554 21.952C186.066 21.952 186.474 21.92 186.778 21.856C187.082 21.776 187.386 21.664 187.69 21.52C187.994 21.392 188.226 21.208 188.386 20.968C188.546 20.712 188.69 20.44 188.818 20.152L189.874 17.8H190.114L190.042 21.232C189.37 21.584 188.618 21.872 187.786 22.096C186.954 22.32 186.042 22.432 185.05 22.432ZM190.778 22V21.76L191.378 21.544C191.698 21.416 191.946 21.264 192.122 21.088C192.298 20.896 192.442 20.632 192.554 20.296L197.498 6.112H199.538L204.41 20.392C204.538 20.744 204.682 21.016 204.842 21.208C205.002 21.384 205.25 21.536 205.586 21.664L205.874 21.76V22H199.778V21.76L200.138 21.64C200.474 21.512 200.674 21.336 200.738 21.112C200.818 20.872 200.81 20.592 200.714 20.272L199.586 16.816H194.258L193.106 20.2C192.994 20.552 192.954 20.832 192.986 21.04C193.034 21.248 193.226 21.416 193.562 21.544L194.09 21.76V22H190.778ZM194.426 16.336H199.442L197.018 8.872L194.426 16.336ZM211.883 22.432C211.003 22.432 210.107 22.32 209.195 22.096C208.283 21.888 207.523 21.608 206.915 21.256L207.035 17.992H207.275L208.019 19.552C208.243 20 208.483 20.4 208.739 20.752C208.995 21.088 209.347 21.352 209.795 21.544C210.115 21.704 210.419 21.816 210.707 21.88C211.011 21.928 211.347 21.952 211.715 21.952C212.691 21.952 213.459 21.688 214.019 21.16C214.595 20.632 214.883 19.952 214.883 19.12C214.883 18.336 214.691 17.728 214.307 17.296C213.923 16.848 213.307 16.416 212.459 16L211.475 15.568C210.099 14.96 209.019 14.264 208.235 13.48C207.467 12.68 207.083 11.624 207.083 10.312C207.083 9.368 207.323 8.552 207.803 7.864C208.299 7.176 208.979 6.648 209.843 6.28C210.723 5.912 211.747 5.728 212.915 5.728C213.763 5.728 214.563 5.84 215.315 6.064C216.083 6.288 216.747 6.592 217.307 6.976L217.163 9.856H216.923L215.939 8.056C215.667 7.496 215.395 7.104 215.123 6.88C214.851 6.64 214.539 6.472 214.187 6.376C213.979 6.312 213.787 6.272 213.611 6.256C213.435 6.224 213.211 6.208 212.939 6.208C212.123 6.208 211.435 6.448 210.875 6.928C210.315 7.392 210.035 8.024 210.035 8.824C210.035 9.64 210.251 10.296 210.683 10.792C211.115 11.272 211.747 11.704 212.579 12.088L213.683 12.568C215.219 13.24 216.323 13.96 216.995 14.728C217.667 15.48 218.003 16.456 218.003 17.656C218.003 19.064 217.467 20.216 216.395 21.112C215.339 21.992 213.835 22.432 211.883 22.432Z" fill="black"/>
</svg>
